<?xml version="1.0" encoding="utf-8"?>
<!-- Generator: Adobe Illustrator 26.3.1, SVG Export Plug-In . SVG Version: 6.00 Build 0)  -->
<svg version="1.1" id="Camada_1" xmlns="http://www.w3.org/2000/svg" xmlns:xlink="http://www.w3.org/1999/xlink" x="0px" y="0px"
	 viewBox="0 0 512 512" style="enable-background:new 0 0 512 512;" xml:space="preserve">
<style type="text/css">
	.st0{fill:url(#SVGID_1_);}
	.st1{fill:#332D52;}
	.st2{fill:url(#SVGID_00000156554849641024135980000000217988140339774141_);}
</style>
<g>
	
		<linearGradient id="SVGID_1_" gradientUnits="userSpaceOnUse" x1="-36.3115" y1="91.9211" x2="252.729" y2="311.7651" gradientTransform="matrix(1 0 0 -1 0 512)">
		<stop  offset="0" style="stop-color:#43AD4B"/>
		<stop  offset="1" style="stop-color:#BAD043"/>
	</linearGradient>
	<path class="st0" d="M44.9,82l145,10.4v185.3c0,0,5.5,31.9,35.5,37.7L381.9,332l0.5,37.7c0,0-2,22.5-28.6,33.3l-77.7,11.9v-70.8
		l-12.2-0.5l-0.5,72.4l-115.9,17.2v-89.1l-11.7-0.3v93.4l-12.8,1.7v43l-46.4-35.2l-28.4,1.7c0,0-21.3,1.4-28.2-23.8l-0.2-315.8
		C19.5,108.8,21,83.7,44.9,82z"/>
	<path class="st1" d="M202.3,93.3l148.4,11.9c0,0,28.5,5,31.3,33.3c1.4,14,0.5,184.8,0.5,184.8l-150.3-16.9c0,0-24.4-3.3-31.1-32.5
		L202.3,93.3z"/>
	
		<linearGradient id="SVGID_00000145034802004966816170000003901297612287367318_" gradientUnits="userSpaceOnUse" x1="203.0735" y1="316.2578" x2="493" y2="316.2578" gradientTransform="matrix(1 0 0 -1 0 512)">
		<stop  offset="0" style="stop-color:#088CCD"/>
		<stop  offset="1" style="stop-color:#1574B7"/>
	</linearGradient>
	<path style="fill:url(#SVGID_00000145034802004966816170000003901297612287367318_);" d="M227.9,43.1l231.3-14.2
		c0,0,29.9,0,33,27.5l0.7,57.7l-63.8,0.2l-0.1,12.3l63.5,0.5l0.1,110l-58.5,0.3l0.2,12.6l58.6-0.5l-0.3,55c0,0-7.1,25.1-24.6,25.2
		l-23.9,0.1l-36.8,32.7l-0.5-37.3l-13.4-2.2l-0.9-187.2c0,0-2.6-34.2-36.3-39c-24.4-3.5-152.9-12.8-152.9-12.8S199,53.3,227.9,43.1z
		"/>
</g>
</svg>
