<?xml version="1.0" encoding="utf-8"?>
<svg version="1.1" xmlns="http://www.w3.org/2000/svg" viewBox="0 0 512 512">
  <!-- Parte verde (esquerda) -->
  <path fill="#43AD4B" d="M44.9,82l145,10.4v185.3c0,0,5.5,31.9,35.5,37.7L381.9,332l0.5,37.7c0,0-2,22.5-28.6,33.3l-77.7,11.9v-70.8
    l-12.2-0.5l-0.5,72.4l-115.9,17.2v-89.1l-11.7-0.3v93.4l-12.8,1.7v43l-46.4-35.2l-28.4,1.7c0,0-21.3,1.4-28.2-23.8l-0.2-315.8
    C19.5,108.8,21,83.7,44.9,82z"/>
  
  <!-- Parte cinza escura (meio) -->
  <path fill="#332D52" d="M202.3,93.3l148.4,11.9c0,0,28.5,5,31.3,33.3c1.4,14,0.5,184.8,0.5,184.8l-150.3-16.9c0,0-24.4-3.3-31.1-32.5
    L202.3,93.3z"/>
  
  <!-- Parte azul (direita) -->
  <path fill="#1574B7" d="M227.9,43.1l231.3-14.2
    c0,0,29.9,0,33,27.5l0.7,57.7l-63.8,0.2l-0.1,12.3l63.5,0.5l0.1,110l-58.5,0.3l0.2,12.6l58.6-0.5l-0.3,55c0,0-7.1,25.1-24.6,25.2
    l-23.9,0.1l-36.8,32.7l-0.5-37.3l-13.4-2.2l-0.9-187.2c0,0-2.6-34.2-36.3-39c-24.4-3.5-152.9-12.8-152.9-12.8S199,53.3,227.9,43.1z"/>
</svg>
